<!-- Generator: Adobe Illustrator 25.2.0, SVG Export Plug-In  -->
<svg version="1.1" xmlns="http://www.w3.org/2000/svg" xmlns:xlink="http://www.w3.org/1999/xlink" x="0px" y="0px" width="376px"
	 height="121px" viewBox="0 0 376 121" style="overflow:visible;enable-background:new 0 0 376 121;" xml:space="preserve">
<style type="text/css">
	.st0{fill:#FFFFFF;}
	.st1{font-family:'LemonMilk';}
	.st2{font-size:47.3249px;}
	.st3{letter-spacing:-2;}
</style>
<defs>
</defs>
<g>
	<path d="M315.5,121h-255C27.087,121,0,93.913,0,60.5v0C0,27.087,27.087,0,60.5,0l255,0C348.913,0,376,27.087,376,60.5v0
		C376,93.913,348.913,121,315.5,121z"/>
	<g>
		<path class="st0" d="M66.98,76.987c-5.206-0.016-9.649-1.848-13.33-5.498c-3.696-3.696-5.545-8.147-5.545-13.353
			c0-5.19,1.849-9.649,5.545-13.376c3.711-3.712,8.155-5.567,13.33-5.567l-0.023,0.092c5.75,0,10.322,2.555,13.399,5.521
			l-5.336,5.337c-2.249-2.218-4.921-3.327-8.017-3.327c-3.142,0-5.806,1.109-7.993,3.327c-2.218,2.248-3.327,4.92-3.327,8.016
			c0,3.127,1.109,5.799,3.327,8.017c2.202,2.202,4.867,3.304,7.993,3.304c3.142,0,5.822-1.109,8.04-3.327l5.336,5.337
			C77.322,74.519,72.789,76.987,66.98,76.987z"/>
		<path class="st0" d="M111.644,44.761c3.711,3.712,5.567,8.17,5.567,13.376c0,5.221-1.856,9.672-5.567,13.353
			c-3.696,3.665-8.147,5.498-13.353,5.498c-5.221-0.016-9.672-1.848-13.353-5.498c-3.696-3.696-5.545-8.147-5.545-13.353
			c0-5.19,1.849-9.649,5.545-13.376c3.711-3.712,8.163-5.567,13.353-5.567C103.481,39.193,107.932,41.049,111.644,44.761z
			 M90.275,50.074c-2.218,2.248-3.327,4.92-3.327,8.016c0,3.127,1.109,5.799,3.327,8.017c2.202,2.202,4.875,3.304,8.016,3.304
			c3.096,0,5.76-1.102,7.993-3.304c2.233-2.202,3.35-4.874,3.35-8.017c0-3.11-1.117-5.783-3.35-8.016
			c-2.218-2.218-4.882-3.327-7.993-3.327C95.134,46.747,92.462,47.856,90.275,50.074z"/>
		<path class="st0" d="M142.842,60.077V39.4h7.508v38.096l-22.455-21.393v20.676h-7.485V38.708L142.842,60.077z"/>
		<path class="st0" d="M185.866,44.783c3.712,3.712,5.567,8.163,5.567,13.354c0,5.189-1.855,9.641-5.567,13.353
			c-3.712,3.681-8.17,5.521-13.376,5.521c-5.221,0-9.672-1.841-13.353-5.521c-3.696-3.712-5.545-8.163-5.545-13.353
			c0-5.175,1.849-9.626,5.545-13.354c3.696-3.727,8.147-5.59,13.353-5.59C177.681,39.193,182.139,41.057,185.866,44.783z
			 M164.474,50.074c-2.218,2.279-3.327,4.951-3.327,8.016c0,3.111,1.109,5.783,3.327,8.017c2.218,2.202,4.89,3.304,8.016,3.304
			c3.08,0,5.752-1.102,8.017-3.304c2.218-2.218,3.327-4.89,3.327-8.017c0-3.096-1.109-5.768-3.327-8.016
			c-2.249-2.218-4.921-3.327-8.017-3.327C169.364,46.747,166.692,47.856,164.474,50.074z M178.358,28.797l-7.624,7.093l-2.68-2.057
			l5.96-8.455L178.358,28.797z"/>
		<path class="st0" d="M212.167,76.987c-5.206-0.016-9.649-1.848-13.33-5.498c-3.696-3.696-5.545-8.147-5.545-13.353
			c0-5.19,1.849-9.649,5.545-13.376c3.711-3.712,8.155-5.567,13.33-5.567l-0.023,0.092c5.75,0,10.322,2.555,13.399,5.521
			l-5.336,5.337c-2.249-2.218-4.921-3.327-8.017-3.327c-3.142,0-5.806,1.109-7.993,3.327c-2.218,2.248-3.327,4.92-3.327,8.016
			c0,3.127,1.109,5.799,3.327,8.017c2.202,2.202,4.867,3.304,7.993,3.304c3.142,0,5.822-1.109,8.04-3.327l5.336,5.337
			C222.509,74.519,217.975,76.987,212.167,76.987z"/>
		<path class="st0" d="M251.264,39.4v7.462h-14.97v7.509h11.227v7.462h-11.227v7.508h14.97v7.438h-22.455V39.4H251.264z"/>
		<path class="st0" d="M272.755,63.635l18.227-25.02v38.118h-7.484V61.302l-10.743,14.831L261.99,61.302v15.432h-7.485V38.615
			L272.755,63.635z"/>
		<path class="st0" d="M318.068,39.4v7.462h-14.97v7.509h11.228v7.462h-11.228v7.508h14.97v7.438h-22.454V39.4H318.068z"/>
	</g>
</g>
</svg>