<?xml version="1.0" encoding="utf-8"?>
<!-- Generator: Adobe Illustrator 25.2.0, SVG Export Plug-In . SVG Version: 6.00 Build 0)  -->
<svg version="1.1" id="Capa_1" xmlns="http://www.w3.org/2000/svg" xmlns:xlink="http://www.w3.org/1999/xlink" x="0px" y="0px"
	 viewBox="0 0 156 114" style="enable-background:new 0 0 156 114;" xml:space="preserve">
<style type="text/css">
	.st0{fill:#FFFFFF;}
</style>
<g>
	<path class="st0" d="M1.45,79.08V1.98h38.69c10.71,0,19.82,3.76,27.34,11.28c7.61,7.56,11.41,16.68,11.41,27.34
		c0,10.75-3.8,19.82-11.41,27.2c-7.61,7.52-16.72,11.28-27.34,11.28H23.59v33.08H1.45V79.08z M40.14,23.92H23.59v33.22l16.54,0.07
		c9.06,0,16.61-7.6,16.61-16.61C56.74,31.6,49.16,23.92,40.14,23.92z"/>
	<path class="st0" d="M119.16,90.47c6.12,0,12.87-5.08,12.87-11.2c0-10.06-13.5-11.46-21.12-14.1c-13.43-4.58-25.3-15.61-25.3-30.61
		c0-18.58,15.07-33.55,33.65-33.55c16.94,0,30.98,12.57,33.25,28.91l-21.99,4.64c0-6.05-5.08-11.13-11.13-11.13
		c-6.15,0-11.23,5.08-11.23,11.2c0,9.93,12.56,12.56,20.22,14.84c13.9,4.01,26.17,14.6,26.17,29.94c0,18.58-16.68,33.58-35.22,33.58
		c-17.04,0-32.45-12.5-34.96-28.91l21.99-4.68c0,6.15,6.68,11.16,12.9,11.16L119.16,90.47z"/>
</g>
</svg>
